<svg height='100px' width='100px'  fill="#000000" xmlns="http://www.w3.org/2000/svg" xmlns:xlink="http://www.w3.org/1999/xlink" version="1.1" x="0px" y="0px" viewBox="0 0 30 30" style="enable-background:new 0 0 30 30;" xml:space="preserve"><g><path d="M25,24H5c-0.6,0-1,0.4-1,1s0.4,1,1,1h20c0.6,0,1-0.4,1-1S25.6,24,25,24z"></path><path d="M14.3,21.9c0.2,0.2,0.5,0.3,0.7,0.3s0.5-0.1,0.7-0.3l7.1-7.1c0.4-0.4,0.4-1,0-1.4s-1-0.4-1.4,0L16,18.8V5c0-0.6-0.4-1-1-1   s-1,0.4-1,1v13.8l-5.4-5.4c-0.4-0.4-1-0.4-1.4,0s-0.4,1,0,1.4L14.3,21.9z"></path></g></svg>